<?xml version="1.0" encoding="iso-8859-1"?>
<!-- Generator: Adobe Illustrator 19.0.0, SVG Export Plug-In . SVG Version: 6.00 Build 0)  -->
<svg version="1.1" id="Capa_1" xmlns="http://www.w3.org/2000/svg" xmlns:xlink="http://www.w3.org/1999/xlink" x="0px" y="0px"
	 viewBox="0 0 512 512" style="enable-background:new 0 0 512 512;" xml:space="preserve">
<g>
	<g>
		<path d="M165.061,85.644l-23.175,18.54c-9.34,7.473-16.498,17.342-20.698,28.543c-7.646,20.392-4.806,43.252,7.599,61.152
			c6.289,9.075,14.638,16.291,24.177,21.206c-5.601-36.566-3.591-74.078,6.046-109.956C160.778,98.548,162.802,92.05,165.061,85.644
			z"/>
	</g>
</g>
<g>
	<g>
		<path d="M390.813,132.725c-4.2-11.2-11.357-21.069-20.698-28.542l-23.175-18.54c2.258,6.406,4.283,12.903,6.051,19.485
			c9.636,35.879,11.646,73.391,6.046,109.955c9.539-4.915,17.887-12.13,24.177-21.206
			C395.619,175.977,398.459,153.117,390.813,132.725z"/>
	</g>
</g>
<g>
	<g>
		<path d="M296.851,382.921h7.82c2.415,11.185,7.437,21.407,14.402,30c13.188,16.27,33.317,26.694,55.843,26.694
			c27.134,0,51.667-15.017,64.027-39.191l-26.712-13.656c-7.205,14.093-21.503,22.848-37.315,22.848
			c-10.222,0-19.595-3.686-26.873-9.793c-9.162-7.687-15-19.212-15-32.08v-34.056c5.558-1.922,10.633-4.879,15-8.642
			c9.799-8.446,16.022-20.934,16.022-34.856c0-13.183-5.58-25.08-14.492-33.479c-7.382-6.956-17.051-11.5-27.748-12.375l2.303-8.635
			c21.834-81.879-1.616-169.189-61.537-229.109L256,0l-6.591,6.59c-59.921,59.921-83.371,147.23-61.537,229.109l2.303,8.635
			c-10.698,0.875-20.366,5.419-27.748,12.375c-8.912,8.398-14.492,20.295-14.492,33.479c0,13.922,6.222,26.41,16.022,34.856
			c4.366,3.763,9.442,6.72,15,8.642v34.056c0,12.867-5.838,24.393-15,32.08c-7.278,6.107-16.652,9.793-26.873,9.793
			c-15.811,0-30.11-8.755-37.315-22.848l-26.712,13.656c12.359,24.174,36.893,39.191,64.027,39.191
			c22.526,0,42.656-10.425,55.843-26.694c6.965-8.593,11.987-18.815,14.402-30h7.82v30v27.206c0,23.089-18.784,41.873-41.874,41.873
			c-15.811,0-30.11-8.755-37.315-22.848l-26.712,13.656C121.608,496.982,146.141,512,173.276,512
			c39.631,0,71.873-32.242,71.873-71.873v-27.206v-30h21.703v30v27.206c0,39.631,32.242,71.873,71.874,71.873
			c27.134,0,51.667-15.018,64.027-39.192l-26.712-13.656C368.835,473.245,354.536,482,338.725,482
			c-23.089,0-41.874-18.784-41.874-41.873v-27.206V382.921z"/>
	</g>
</g>
<g>
</g>
<g>
</g>
<g>
</g>
<g>
</g>
<g>
</g>
<g>
</g>
<g>
</g>
<g>
</g>
<g>
</g>
<g>
</g>
<g>
</g>
<g>
</g>
<g>
</g>
<g>
</g>
<g>
</g>
</svg>
